<?xml version="1.0" encoding="UTF-8" standalone="no"?>
<svg xmlns="http://www.w3.org/2000/svg" version="1.1" width="599" height="600" viewbox="0 0 599 600">
<title>undefined</title><path d="M299.5,0 L0,0 L0,300 L0,600 L299.5,600 L599,600 L599,300 L599,0 L299.5,0 " fill="rgb(255, 255, 255)" stroke="none" fill-rule="evenodd"></path><path d="M258,0.5 C257.45,0.225,255.875,0.45,254.5,1 C253.125,1.55,249.75,2.45,247,3 C244.25,3.55,238.4,4.9,234,6 C229.6,7.1,223.975,8.45,221.5,9 C219.025,9.55,215.425,10.675,213.5,11.5 C211.575,12.325,203.7,15.25,196,18 C188.3,20.75,180.2,23.675,178,24.5 C175.8,25.325,171.075,27.35,167.5,29 C163.925,30.65,158.525,33.575,155.5,35.5 C152.475,37.425,146.4,41.25,142,44 C137.6,46.75,130.4,51.475,126,54.5 C121.6,57.525,115.975,61.575,113.5,63.5 C111.025,65.425,101.125,74.65,91.5,84 C81.875,93.35,70.625,105.275,66.5,110.5 C62.375,115.725,57.2,122.475,55,125.5 C52.8,128.525,49.2,133.7,47,137 C44.8,140.3,40.525,147.5,37.5,153 C34.475,158.5,31.1,165.025,30,167.5 C28.9,169.975,26.425,175.15,24.5,179 C22.575,182.85,20.55,187.35,20,189 C19.45,190.65,18.325,193.575,17.5,195.5 C16.675,197.425,15.55,200.8,15,203 C14.45,205.2,13.55,208.35,13,210 C12.45,211.65,12.225,213.45,12.5,214 C12.775,214.55,12.55,214.775,12,214.5 C11.45,214.225,11.225,214.9,11.5,216 C11.775,217.1,11.55,218.225,11,218.5 C10.45,218.775,10.225,219.225,10.5,219.5 C10.775,219.775,10.325,221.575,9.5,223.5 C8.675,225.425,7.55,228.8,7,231 C6.45,233.2,5.775,236.8,5.5,239 C5.225,241.2,5.225,243.675,5.5,244.5 C5.775,245.325,5.325,250.05,4.5,255 C3.675,259.95,3,266.7,3,270 C3,273.3,2.55,280.05,2,285 C1.45,289.95,1,298.5,1,304 C1,309.5,1.45,318.05,2,323 C2.55,327.95,3.45,338.075,4,345.5 C4.55,352.925,5.9,361.475,7,364.5 C8.1,367.525,11.25,377.2,14,386 C16.75,394.8,21.25,407.625,24,414.5 C26.75,421.375,30.8,430.6,33,435 C35.2,439.4,41.275,449.75,46.5,458 C51.725,466.25,60.05,478.175,65,484.5 C69.95,490.825,79.625,501.625,86.5,508.5 C93.375,515.375,103.275,524.825,108.5,529.5 C113.725,534.175,117.775,538.225,117.5,538.5 C117.225,538.775,117.675,539.45,118.5,540 C119.369,540.579,119.579,540.369,119,539.5 C118.45,538.675,118.9,538.675,120,539.5 C121.1,540.325,121.775,541.225,121.5,541.5 C121.225,541.775,121.45,542.225,122,542.5 C122.55,542.775,122.775,542.55,122.5,542 C122.225,541.45,127.625,544.6,134.5,549 C141.375,553.4,147.45,557.45,148,558 C148.55,558.55,148.775,559.225,148.5,559.5 C148.225,559.775,148.675,559.775,149.5,559.5 C150.325,559.225,152.125,559.9,153.5,561 C154.875,562.1,155.775,563.225,155.5,563.5 C155.225,563.775,155.675,563.775,156.5,563.5 C157.325,563.225,158.9,563.675,160,564.5 C161.1,565.325,161.775,566.225,161.5,566.5 C161.225,566.775,161.675,566.775,162.5,566.5 C163.325,566.225,164.9,566.675,166,567.5 C167.1,568.325,167.775,569.225,167.5,569.5 C167.225,569.775,167.675,569.775,168.5,569.5 C169.325,569.225,169.775,569.45,169.5,570 C169.225,570.55,169.675,570.775,170.5,570.5 C171.325,570.225,171.775,570.45,171.5,571 C171.225,571.55,171.675,571.775,172.5,571.5 C173.325,571.225,173.775,571.45,173.5,572 C173.225,572.55,173.675,572.775,174.5,572.5 C175.325,572.225,180.5,573.8,186,576 C191.5,578.2,201.175,581.8,207.5,584 C213.825,586.2,219.675,588.45,220.5,589 C221.325,589.55,222.225,589.775,222.5,589.5 C222.775,589.225,223.225,589.45,223.5,590 C223.775,590.55,224.675,590.775,225.5,590.5 C226.325,590.225,227.225,590.45,227.5,591 C227.775,591.55,228.225,591.775,228.5,591.5 C228.775,591.225,233.725,591.9,239.5,593 C245.275,594.1,251.35,595.45,253,596 C254.65,596.55,257.125,597.45,258.5,598 C259.875,598.55,276.975,599,296.5,599 C316.025,599,334.025,598.325,336.5,597.5 C338.975,596.675,345.95,595.325,352,594.5 C358.05,593.675,366.375,592.1,370.5,591 C374.625,589.9,383.175,587.425,389.5,585.5 C395.825,583.575,402.575,581.325,404.5,580.5 C406.425,579.675,410.025,578.325,412.5,577.5 C414.975,576.675,418.35,575.325,420,574.5 C421.65,573.675,427.05,570.975,432,568.5 C436.95,566.025,446.625,560.625,453.5,556.5 C460.375,552.375,468.475,547.2,471.5,545 C474.525,542.8,481.05,537.85,486,534 C490.95,530.15,501.975,520.025,510.5,511.5 C519.025,502.975,528.925,492.175,532.5,487.5 C536.075,482.825,540.35,477.2,542,475 C543.65,472.8,547.025,468.075,549.5,464.5 C551.975,460.925,555.125,455.975,556.5,453.5 C557.875,451.025,559.9,447.425,561,445.5 C562.1,443.575,563.675,440.875,564.5,439.5 C565.325,438.125,566.9,434.975,568,432.5 C569.1,430.025,571.8,423.5,574,418 C576.2,412.5,579.125,405.3,580.5,402 C581.875,398.7,583.9,392.85,585,389 C586.1,385.15,587.45,380.2,588,378 C588.55,375.8,589.675,371.75,590.5,369 C591.325,366.25,592.675,360.85,593.5,357 C594.325,353.15,594.775,349.55,594.5,349 C594.225,348.45,594.45,345.3,595,342 C595.55,338.7,596.45,334.2,597,332 C597.55,329.8,598,313.6,598,296 C598,278.4,597.55,262.2,597,260 C596.45,257.8,595.1,251.05,594,245 C592.9,238.95,591.55,232.2,591,230 C590.45,227.8,589.325,223.525,588.5,220.5 C587.675,217.475,586.1,211.625,585,207.5 C583.9,203.375,582.325,198.875,581.5,197.5 C580.675,196.125,579.1,192.3,578,189 C576.9,185.7,575.55,182.325,575,181.5 C574.45,180.675,571.3,174.375,568,167.5 C564.7,160.625,557.95,148.475,553,140.5 C548.05,132.525,541.525,122.625,538.5,118.5 C535.475,114.375,532.1,109.875,531,108.5 C529.9,107.125,527.65,104.65,526,103 C524.35,101.35,520.525,97.3,517.5,94 C514.475,90.7,510.875,86.875,509.5,85.5 C508.125,84.125,501.6,78.275,495,72.5 C488.4,66.725,481.425,60.875,479.5,59.5 C477.575,58.125,471.05,53.85,465,50 C458.95,46.15,449.5,40.3,444,37 C438.5,33.7,430.85,29.65,427,28 C423.15,26.35,417.975,24.1,415.5,23 C413.025,21.9,408.975,20.325,406.5,19.5 C404.025,18.675,399.975,17.325,397.5,16.5 C395.025,15.675,389.625,13.875,385.5,12.5 C381.375,11.125,374.4,9.1,370,8 C365.6,6.9,358.625,5.325,354.5,4.5 C350.375,3.675,344.975,2.775,342.5,2.5 C340.025,2.225,336.425,1.55,334.5,1 C332.575,0.45,315.475,0,296.5,0 C277.525,0,261.325,0.225,260.5,0.5 C259.675,0.775,258.55,0.775,258,0.5 M287.5,5 C291.075,5,300.525,5.225,308.5,5.5 C316.475,5.775,327.275,6.45,332.5,7 C337.725,7.55,346.725,8.9,352.5,10 C358.275,11.1,365.7,12.675,369,13.5 C372.3,14.325,378.825,16.125,383.5,17.5 C388.175,18.875,394.025,20.675,396.5,21.5 C398.975,22.325,404.375,24.35,408.5,26 C412.625,27.65,420.725,31.25,426.5,34 C432.275,36.75,441.275,41.475,446.5,44.5 C451.725,47.525,460.05,52.7,465,56 C469.95,59.3,479.175,66.275,485.5,71.5 C491.825,76.725,502.4,86.4,509,93 C515.6,99.6,524.6,109.5,529,115 C533.4,120.5,540.15,129.725,544,135.5 C547.85,141.275,553.7,150.725,557,156.5 C560.3,162.275,565.925,173.75,569.5,182 C573.075,190.25,577.8,202.625,580,209.5 C582.2,216.375,585.35,227.85,587,235 C588.65,242.15,590.675,253.85,591.5,261 C592.325,268.15,593.225,276.025,593.5,278.5 C593.775,280.975,593.775,291.1,593.5,301 C593.225,310.9,592.55,323.725,592,329.5 C591.45,335.275,590.1,344.95,589,351 C587.9,357.05,585.875,366.5,584.5,372 C583.125,377.5,580.425,386.725,578.5,392.5 C576.575,398.275,573.65,406.375,572,410.5 C570.35,414.625,566.75,422.725,564,428.5 C561.25,434.275,556.3,443.5,553,449 C549.7,454.5,543.85,463.5,540,469 C536.15,474.5,529.625,483.05,525.5,488 C521.375,492.95,511.025,503.75,502.5,512 C493.975,520.25,483.175,529.925,478.5,533.5 C473.825,537.075,464.825,543.375,458.5,547.5 C452.175,551.625,442.725,557.25,437.5,560 C432.275,562.75,421.7,567.7,414,571 C406.3,574.3,395.05,578.575,389,580.5 C382.95,582.425,370.8,585.575,362,587.5 C353.2,589.425,341.725,591.45,336.5,592 C331.275,592.55,324.975,593.225,322.5,593.5 C320.025,593.775,308.775,593.775,297.5,593.5 C286.225,593.225,272.95,592.55,268,592 C263.05,591.45,255.175,590.325,250.5,589.5 C245.825,588.675,238.85,587.325,235,586.5 C231.15,585.675,224.175,583.875,219.5,582.5 C214.825,581.125,207.625,578.875,203.5,577.5 C199.375,576.125,191.275,572.975,185.5,570.5 C179.725,568.025,171.85,564.425,168,562.5 C164.15,560.575,157.85,557.2,154,555 C150.15,552.8,141.375,547.175,134.5,542.5 C127.625,537.825,118.175,530.85,113.5,527 C108.825,523.15,99.15,514.15,92,507 C84.85,499.85,75.175,489.275,70.5,483.5 C65.825,477.725,57.95,466.7,53,459 C48.05,451.3,39.725,436,34.5,425 C29.275,414,22.75,398.025,20,389.5 C17.25,380.975,13.875,368.825,12.5,362.5 C11.125,356.175,9.325,345.375,8.5,338.5 C7.675,331.625,6.775,323.975,6.5,321.5 C6.225,319.025,6.225,308,6.5,297 C6.775,286,7.45,272.95,8,268 C8.55,263.05,9.9,253.825,11,247.5 C12.1,241.175,13.9,232.4,15,228 C16.1,223.6,18.125,216.4,19.5,212 C20.875,207.6,23.35,200.4,25,196 C26.65,191.6,29.575,184.4,31.5,180 C33.425,175.6,38.15,166.15,42,159 C45.85,151.85,52.825,140.375,57.5,133.5 C62.175,126.625,69.15,117.175,73,112.5 C76.85,107.825,87.65,96.575,97,87.5 C106.35,78.425,119.175,67.175,125.5,62.5 C131.825,57.825,142.625,50.625,149.5,46.5 C156.375,42.375,167.625,36.3,174.5,33 C181.375,29.7,193.975,24.525,202.5,21.5 C211.025,18.475,225.875,14.2,235.5,12 C245.125,9.8,257.275,7.55,262.5,7 C267.725,6.45,274.025,5.775,276.5,5.5 C278.975,5.225,283.925,5,287.5,5 M376.5,164.5 C374.575,164.225,368.275,166.25,362.5,169 C356.725,171.75,348.4,176.7,344,180 C339.6,183.3,331.95,190.05,327,195 C322.05,199.95,315.975,206.25,313.5,209 L309,214 L294.5,214.5 C286.525,214.775,273.925,215.675,266.5,216.5 C259.075,217.325,245.575,219.575,236.5,221.5 C227.425,223.425,217.75,225.675,215,226.5 C212.25,227.325,204.15,230.025,197,232.5 C189.85,234.975,179.05,239.25,173,242 C166.95,244.75,156.375,249.925,149.5,253.5 C142.625,257.075,127.775,264.05,116.5,269 C105.225,273.95,85.65,282.95,73,289 C60.35,295.05,45.05,303.15,39,307 C32.95,310.85,26.2,316.25,24,319 C21.8,321.75,19.55,325.8,19,328 C18.45,330.2,18.9,334.7,20,338 C21.1,341.3,25.375,347.825,29.5,352.5 C33.625,357.175,41.5,366.4,47,373 C52.5,379.6,58.35,385.9,60,387 C61.65,388.1,66.375,391.925,70.5,395.5 C74.625,399.075,81.375,404.25,85.5,407 C89.625,409.75,97.275,414.25,102.5,417 C107.725,419.75,115.15,423.35,119,425 C122.85,426.65,129.375,429.125,133.5,430.5 C137.625,431.875,144.825,434.125,149.5,435.5 L158,438 L162.5,444 C164.975,447.3,169.025,450.9,171.5,452 C173.975,453.1,177.8,453.55,180,453 C182.2,452.45,187.15,449.3,191,446 L198,440 L207,439.5 C211.95,439.225,218.025,438.775,220.5,438.5 C222.975,438.225,230.4,437.1,237,436 C243.6,434.9,256.65,431.975,266,429.5 C275.35,427.025,289.975,422.525,298.5,419.5 C307.025,416.475,320.075,411.3,327.5,408 C334.925,404.7,346.85,399.075,354,395.5 C361.15,391.925,369.925,387.425,373.5,385.5 L380,382 L388,386 C392.4,388.2,398.7,391.125,402,392.5 C405.3,393.875,411.825,396.125,416.5,397.5 C421.175,398.875,427.25,400.45,430,401 C432.75,401.55,438.15,402.45,442,403 C445.85,403.55,453.05,404,458,404 C462.95,404,468.575,403.1,470.5,402 C472.425,400.9,474.225,399.1,474.5,398 C474.775,396.9,472.975,393.75,470.5,391 C468.025,388.25,458.575,379.7,449.5,372 C440.425,364.3,431.875,356.875,430.5,355.5 C429.125,354.125,427.775,352.775,427.5,352.5 C427.225,352.225,428.35,351.1,430,350 C431.65,348.9,434.575,346.875,436.5,345.5 C438.425,344.125,442.025,341.875,444.5,340.5 C446.975,339.125,449.675,336.2,450.5,334 C451.325,331.8,454.025,327.525,456.5,324.5 C458.975,321.475,466.175,314.95,472.5,310 C478.825,305.05,484.45,301.225,485,301.5 C485.55,301.775,488.025,305.15,490.5,309 C492.975,312.85,498.825,320.05,503.5,325 C508.175,329.95,515.15,336.475,519,339.5 C522.85,342.525,529.825,347.025,534.5,349.5 C539.175,351.975,544.35,354.225,546,354.5 C547.65,354.775,549.45,354.325,550,353.5 C550.55,352.675,550.775,350.65,550.5,349 C550.225,347.35,547.75,342.4,545,338 C542.25,333.6,538.2,325.725,536,320.5 C533.8,315.275,529.75,304.7,527,297 C524.133,288.971,522.427,281.507,523,279.5 C523.55,277.575,525.8,272.4,528,268 C530.2,263.6,533.8,255.275,536,249.5 C538.2,243.725,541.35,234.5,543,229 C544.65,223.5,548.475,214.05,551.5,208 C554.525,201.95,557.9,195.2,559,193 C560.1,190.8,561.225,187.65,561.5,186 C561.864,183.818,561.045,182.727,558.5,182 C556.575,181.45,550.95,182.575,546,184.5 C541.05,186.425,532.95,190.925,528,194.5 C523.05,198.075,516.075,204.15,512.5,208 C508.925,211.85,503.75,218.15,501,222 C498.25,225.85,493.975,233.05,491.5,238 C489.025,242.95,485.2,251.725,483,257.5 L479,268 L474.5,267.5 C472.025,267.225,467.525,265.65,464.5,264 C460.661,261.906,458.094,259.037,456,254.5 C454.01,250.188,451.822,247.663,449.5,247 C447.462,246.418,443.911,247.253,441,249 C438.25,250.65,434.2,251.775,432,251.5 C429.8,251.225,421.25,247.625,413,243.5 C404.75,239.375,394.625,234.2,390.5,232 C384.961,229.046,382.608,226.823,381.5,223.5 C380.675,221.025,379.55,216.3,379,213 C378.45,209.7,377.775,206.55,377.5,206 C377.225,205.45,377.225,204.775,377.5,204.5 C377.775,204.225,377.775,203.55,377.5,203 C377.225,202.45,377.225,199.975,377.5,197.5 C377.775,195.025,378.675,189.175,379.5,184.5 C380.325,179.825,381.45,174.425,382,172.5 C382.55,170.575,382.325,168.1,381.5,167 C380.675,165.9,378.425,164.775,376.5,164.5 M370.5,172 C371.325,172,371.55,173.575,371,175.5 C370.45,177.425,370.225,178.55,370.5,178 C370.775,177.45,371.45,177.225,372,177.5 C372.55,177.775,372.55,181.825,372,186.5 C371.45,191.175,371.225,200.4,371.5,207 C371.863,215.701,371.45,218.588,370,217.5 C368.9,216.675,368,212.85,368,209 C368,205.15,368.225,199.975,368.5,197.5 C368.775,195.025,368.775,191.2,368.5,189 L368,185 L365,191 C363.35,194.3,360.425,200.15,358.5,204 C356.575,207.85,353.65,211.675,352,212.5 C349.687,213.657,349.458,214.343,351,215.5 C352.1,216.325,355.7,217.675,359,218.5 C362.3,219.325,365.45,220.675,366,221.5 C366.55,222.325,363.4,222.1,359,221 C354.6,219.9,344.925,218.1,337.5,217 C330.075,215.9,323.325,214.1,322.5,213 C321.675,211.9,321.675,209.875,322.5,208.5 C323.325,207.125,326.25,203.525,329,200.5 C331.75,197.475,338.725,191.4,344.5,187 C350.275,182.6,358.15,177.425,362,175.5 C365.85,173.575,369.675,172,370.5,172 M550.5,189 C551.325,189,551.775,189.225,551.5,189.5 C551.225,189.775,551.45,190.225,552,190.5 C552.55,190.775,552.55,191.9,552,193 C551.45,194.1,548.975,199.05,546.5,204 C544.025,208.95,540.425,217.95,538.5,224 C536.575,230.05,533.2,239.95,531,246 C528.8,252.05,524.975,261.05,522.5,266 C520.025,270.95,517.55,276.8,517,279 C516.45,281.2,516.9,285.7,518,289 C519.1,292.3,522.025,300.4,524.5,307 C526.975,313.6,531.475,324.175,534.5,330.5 C537.525,336.825,540.225,342.9,540.5,344 C540.835,345.342,540.177,345.671,538.5,345 C537.125,344.45,532.175,341.3,527.5,338 C522.825,334.7,514.95,327.95,510,323 C505.05,318.05,498.75,310.4,496,306 L491,298 L495,294 C497.2,291.8,500.125,288.875,501.5,287.5 C502.875,286.125,503.775,284.55,503.5,284 C503.225,283.45,498.95,285.25,494,288 C489.05,290.75,482.075,295.25,478.5,298 C474.925,300.75,467.95,306.6,463,311 C458.05,315.4,451.525,322.15,448.5,326 C445.475,329.85,438.5,336.6,433,341 L423,349 L416.5,345.5 C412.925,343.575,405.05,339.525,399,336.5 C392.95,333.475,383.725,330.1,378.5,329 C373.275,327.9,366.75,327.45,364,328 C361.25,328.55,359.225,329.675,359.5,330.5 C359.775,331.325,364.5,332.9,370,334 C375.5,335.1,383.15,337.125,387,338.5 C390.85,339.875,397.825,343.025,402.5,345.5 C407.175,347.975,414.375,352.25,418.5,355 C422.625,357.75,430.725,363.825,436.5,368.5 C442.275,373.175,451.05,380.6,456,385 C460.95,389.4,464.775,393.9,464.5,395 C464.225,396.1,462.2,397.225,460,397.5 C457.8,397.775,451.725,397.55,446.5,397 C441.275,396.45,432.95,395.1,428,394 C423.05,392.9,416.3,391.1,413,390 C409.7,388.9,400.7,384.85,393,381 C385.3,377.15,377.425,373.1,375.5,372 C373.575,370.9,367.5,367.075,362,363.5 C356.5,359.925,348.625,355.425,344.5,353.5 C340.375,351.575,334.3,348.875,331,347.5 C326.2,345.5,324.8,345.5,324,347.5 C323.45,348.875,323.45,351.125,324,352.5 C324.55,353.875,327.475,355.675,330.5,356.5 C333.525,357.325,338.25,358.9,341,360 C343.75,361.1,351.175,365.15,357.5,369 C363.825,372.85,369.225,376.9,369.5,378 C369.797,379.19,366.962,381.823,362.5,384.5 C358.375,386.975,351.4,390.8,347,393 C342.6,395.2,331.125,400.375,321.5,404.5 C311.875,408.625,296.35,414.475,287,417.5 C277.65,420.525,262.125,424.8,252.5,427 C242.875,429.2,228.25,431.675,220,432.5 C211.75,433.325,202.975,434.225,200.5,434.5 C198.025,434.775,194.2,434.775,192,434.5 C189.8,434.225,183.275,433.775,177.5,433.5 C171.725,433.225,163.625,432.325,159.5,431.5 C155.375,430.675,147.95,428.875,143,427.5 C138.05,426.125,130.625,423.65,126.5,422 C122.375,420.35,115.4,417.2,111,415 C106.6,412.8,98.275,408.075,92.5,404.5 C86.725,400.925,79.075,395.75,75.5,393 C71.925,390.25,66.525,385.75,63.5,383 C60.475,380.25,55.975,375.525,53.5,372.5 L49,367 L57,370.5 C61.4,372.425,68.6,374.675,73,375.5 C77.4,376.325,85.5,377,91,377 C96.5,377,107.75,376.55,116,376 C124.25,375.45,136.625,374.1,143.5,373 C150.375,371.9,161.625,369.875,168.5,368.5 C175.375,367.125,185.05,364.875,190,363.5 C194.95,362.125,200.8,361.225,203,361.5 C205.2,361.775,208.125,362.675,209.5,363.5 C210.875,364.325,214.25,365.225,217,365.5 L222,366 L218.5,363 C216.575,361.35,214.1,358.425,213,356.5 C211.9,354.575,209.65,351.875,208,350.5 C206.35,349.125,202.975,347.775,200.5,347.5 C198.025,347.225,194.425,347.45,192.5,348 C190.575,348.55,189.225,349.45,189.5,350 C189.775,350.55,189.55,351.45,189,352 C188.45,352.55,188.9,353.675,190,354.5 C191.583,355.687,191.269,356.313,188.5,357.5 C186.575,358.325,177.575,360.575,168.5,362.5 C159.425,364.425,149.3,366.45,146,367 C142.7,367.55,135.725,368.45,130.5,369 C125.275,369.55,118.975,370.225,116.5,370.5 C114.025,370.775,105.475,370.775,97.5,370.5 C89.525,370.225,79.85,369.55,76,369 C72.15,368.45,66.3,367.1,63,366 C59.7,364.9,53.175,361.75,48.5,359 C43.825,356.25,37.75,351.75,35,349 C32.25,346.25,28.875,341.975,27.5,339.5 C26.125,337.025,25.225,332.975,25.5,330.5 C25.775,328.025,27.125,324.425,28.5,322.5 C29.875,320.575,36.175,315.85,42.5,312 C48.825,308.15,63.45,300.5,75,295 C86.55,289.5,101.4,282.75,108,280 C114.6,277.25,124.725,272.975,130.5,270.5 C136.275,268.025,147.075,262.85,154.5,259 C161.925,255.15,173.625,249.525,180.5,246.5 C187.375,243.475,200.875,238.525,210.5,235.5 C220.125,232.475,231.825,229.1,236.5,228 C241.175,226.9,251.525,225.1,259.5,224 C267.475,222.9,276.025,221.775,278.5,221.5 C280.975,221.225,287.725,221,293.5,221 C299.275,221,309.175,221.45,315.5,222 C321.825,222.55,330.15,223.45,334,224 C337.85,224.55,345.05,225.9,350,227 C354.95,228.1,364.4,230.575,371,232.5 C377.6,234.425,386.6,237.575,391,239.5 C395.4,241.425,402.6,244.8,407,247 C411.4,249.2,421.075,253.475,428.5,256.5 C435.925,259.525,446.95,264.025,453,266.5 C459.05,268.975,466.7,271.675,470,272.5 C473.3,273.325,478.025,274.675,480.5,275.5 C482.975,276.325,486.8,277.675,489,278.5 C491.2,279.325,494.125,279.775,495.5,279.5 C497.272,279.146,497.563,278.418,496.5,277 C495.675,275.9,492.975,274.1,490.5,273 C486.936,271.416,486.104,270.272,486.5,267.5 C486.775,265.575,488.125,260.625,489.5,256.5 C490.875,252.375,493.8,245.4,496,241 C498.2,236.6,502.925,228.95,506.5,224 C510.075,219.05,515.475,212.525,518.5,209.5 C521.525,206.475,527.15,201.75,531,199 C534.85,196.25,540.475,192.875,543.5,191.5 C546.525,190.125,549.675,189,550.5,189 M292,226 C288.7,225.45,283.3,225.675,280,226.5 C276.7,227.325,274.9,228.225,276,228.5 C277.1,228.775,279.125,228.775,280.5,228.5 C281.875,228.225,284.575,228.45,286.5,229 C288.425,229.55,292.25,229.55,295,229 C297.75,228.45,301.8,228.45,304,229 C306.2,229.55,308.225,230.225,308.5,230.5 C308.775,230.775,310.125,230.55,311.5,230 C312.875,229.45,314.45,229.45,315,230 C315.55,230.55,315.775,230.1,315.5,229 C315.208,227.833,311.666,226.792,307,226.5 C302.6,226.225,298.775,226.225,298.5,226.5 C298.225,226.775,295.3,226.55,292,226 M340,228 C337.25,227.45,334.55,227.45,334,228 C333.45,228.55,334.35,229.225,336,229.5 C337.65,229.775,339.45,229.775,340,229.5 C340.55,229.225,342.35,229.45,344,230 C345.65,230.55,347.9,231.45,349,232 C350.1,232.55,350.325,232.55,349.5,232 C348.675,231.45,347.325,230.55,346.5,230 C345.675,229.45,342.75,228.55,340,228 M319.5,230.5 C319.225,230.225,319.9,231.35,321,233 C322.1,234.65,324.35,236.45,326,237 C328.042,237.681,328.84,237.361,328.5,236 C328.225,234.9,326.875,233.325,325.5,232.5 C324.125,231.675,322.55,230.775,322,230.5 C321.45,230.225,320.775,230.225,320.5,230.5 C320.225,230.775,319.775,230.775,319.5,230.5 M246,232 C243.25,232,238.75,232.9,236,234 C233.25,235.1,231.225,236.225,231.5,236.5 C231.775,236.775,233.35,236.775,235,236.5 C236.65,236.225,239.575,236.45,241.5,237 C243.601,237.6,245.999,237.001,247.5,235.5 C248.875,234.125,250.225,232.775,250.5,232.5 C250.775,232.225,248.75,232,246,232 M298,234 C296.667,234,296.667,234.833,298,236.5 C299.1,237.875,300.675,238.775,301.5,238.5 C302.325,238.225,302.325,237.1,301.5,236 C300.675,234.9,299.1,234,298,234 M288,236.5 C287.45,236.225,286.1,236.45,285,237 C283.555,237.723,283.694,238.277,285.5,239 C286.875,239.55,288.225,239.325,288.5,238.5 C288.775,237.675,288.55,236.775,288,236.5 M356.5,236 C355.675,236,355.45,237.35,356,239 C356.55,240.65,358.125,242.45,359.5,243 C360.875,243.55,363.35,244.675,365,245.5 C366.65,246.325,369.125,247.9,370.5,249 C371.875,250.1,373.45,250.55,374,250 C374.55,249.45,374.325,248.1,373.5,247 C372.675,245.9,370.425,244.325,368.5,243.5 C366.575,242.675,363.425,240.65,361.5,239 C359.575,237.35,357.325,236,356.5,236 M375,239 L370,237 L375,240 C377.75,241.65,380.45,244.575,381,246.5 C381.55,248.425,382.9,250.225,384,250.5 C385.315,250.829,385.829,249.972,385.5,248 C385.225,246.35,383.875,244.1,382.5,243 C381.125,241.9,377.75,240.1,375,239 M260,239 C258.9,239,257.55,239.9,257,241 C256.412,242.176,257.03,243.412,258.5,244 C259.875,244.55,261.675,244.325,262.5,243.5 C263.325,242.675,263.55,241.325,263,240.5 C262.45,239.675,261.1,239,260,239 M343.5,240.5 C341.575,240.225,340.225,240.45,340.5,241 C340.775,241.55,341.9,242.675,343,243.5 C344.1,244.325,346.35,245.225,348,245.5 L351,246 L349,243.5 C347.9,242.125,345.425,240.775,343.5,240.5 M220,241.5 C216.013,241.101,215.101,241.507,215.5,243.5 C215.859,245.294,216.989,245.718,219.5,245 C221.425,244.45,223.45,243.55,224,243 C224.55,242.45,222.75,241.775,220,241.5 M311,242 C310.45,242,309.775,242.9,309.5,244 C309.225,245.1,310.35,246.9,312,248 C314.336,249.557,315.111,249.447,315.5,247.5 C315.775,246.125,315.1,244.325,314,243.5 C312.9,242.675,311.55,242,311,242 M234,244.5 C233.45,244.225,233.225,245.35,233.5,247 C233.896,249.374,234.104,249.478,234.5,247.5 C234.775,246.125,234.55,244.775,234,244.5 M286.5,248.5 C284.575,248.225,282.775,248.675,282.5,249.5 C282.225,250.325,283.575,251.675,285.5,252.5 C287.425,253.325,289.675,253.55,290.5,253 C291.325,252.45,291.55,251.325,291,250.5 C290.45,249.675,288.425,248.775,286.5,248.5 M359,249.5 C357.667,249.167,357.667,249.5,359,250.5 C360.1,251.325,362.125,252.225,363.5,252.5 C365.5,252.9,365.5,252.7,363.5,251.5 C362.125,250.675,360.1,249.775,359,249.5 M333,251.5 C331.9,251.225,330.775,251.45,330.5,252 C330.225,252.55,331.35,254.125,333,255.5 C334.65,256.875,336.9,257.775,338,257.5 C339.369,257.158,339.211,256.211,337.5,254.5 C336.125,253.125,334.1,251.775,333,251.5 M204,252 C201.886,252,201.148,252.738,201.5,254.5 C201.775,255.875,203.575,257.225,205.5,257.5 C207.425,257.775,209.45,257.325,210,256.5 C210.55,255.675,210.1,254.325,209,253.5 C207.9,252.675,205.65,252,204,252 M186,255 C183.8,253.9,181.325,253.45,180.5,254 C179.652,254.565,181.175,255.87,184,257 C186.75,258.1,190.125,259.225,191.5,259.5 C193.478,259.896,193.583,259.687,192,258.5 C190.9,257.675,188.2,256.1,186,255 M240,254 C237.25,253.45,235.225,253.45,235.5,254 C235.775,254.55,237.8,255.9,240,257 C242.667,258.333,244.167,258.333,244.5,257 C244.823,255.707,243.233,254.647,240,254 M348.5,254 C348.225,254,347.775,254.675,347.5,255.5 C347.225,256.325,348.35,258.125,350,259.5 C352.049,261.208,353.158,261.366,353.5,260 C353.775,258.9,352.875,257.1,351.5,256 C350.125,254.9,348.775,254,348.5,254 M321.5,255 C321.225,255,321.225,256.35,321.5,258 C321.775,259.65,322.675,261.45,323.5,262 C324.325,262.55,325.225,261.875,325.5,260.5 C325.775,259.125,325.1,257.325,324,256.5 C322.9,255.675,321.775,255,321.5,255 M382.5,256.5 C380.555,256.111,380.222,256.666,381,259 C381.55,260.65,382.9,262.225,384,262.5 C385.315,262.829,385.829,261.972,385.5,260 C385.225,258.35,383.875,256.775,382.5,256.5 M408.5,258 C408.225,258,405.525,258.675,402.5,259.5 C399.475,260.325,396.775,261.45,396.5,262 C396.225,262.55,398.25,263.225,401,263.5 C403.75,263.775,406.675,263.325,407.5,262.5 C408.446,261.554,409.554,261.923,410.5,263.5 C411.325,264.875,412.9,266.225,414,266.5 C415.361,266.84,415.681,266.042,415,264 C414.45,262.35,412.875,260.325,411.5,259.5 C410.125,258.675,408.775,258,408.5,258 M419.5,259.5 C419.225,259.225,420.125,260.575,421.5,262.5 L424,266 L425.5,263.5 L427,261 L423.5,260.5 C421.575,260.225,419.775,259.775,419.5,259.5 M229,260 C227.9,260,226.775,260.675,226.5,261.5 C226.225,262.325,227.575,263.675,229.5,264.5 C231.425,265.325,233.675,265.55,234.5,265 C235.35,264.433,234.917,263.133,233.5,262 C232.125,260.9,230.1,260,229,260 M315,262 C313.667,260.667,312.833,260.667,312.5,262 C312.225,263.1,312.675,265.575,313.5,267.5 C314.325,269.425,315.9,271.45,317,272 C318.453,272.727,318.727,271.77,318,268.5 C317.45,266.025,316.1,263.1,315,262 M169.5,261.5 C167.025,261.225,164.1,261.675,163,262.5 C161.9,263.325,161.45,264.675,162,265.5 C162.55,266.325,165.25,266.55,168,266 C170.75,265.45,173.225,264.325,173.5,263.5 C173.775,262.675,171.975,261.775,169.5,261.5 M274.5,261 C273.675,261,272.775,261.45,272.5,262 C272.225,262.55,275.375,264.125,279.5,265.5 C283.625,266.875,287.225,268.225,287.5,268.5 C287.775,268.775,287.1,267.65,286,266 C284.9,264.35,282.2,262.55,280,262 C277.8,261.45,275.325,261,274.5,261 M256.5,263.5 C255.125,263.225,253.55,264.125,253,265.5 C252.268,267.331,252.803,268.134,255,268.5 C256.919,268.82,258.18,268.1,258.5,266.5 C258.797,265.016,257.984,263.797,256.5,263.5 M189.5,265 C188.675,265,187.55,266.125,187,267.5 C186.367,269.083,186.917,270.367,188.5,271 C189.875,271.55,192.35,271.775,194,271.5 C195.737,271.21,196.79,270.158,196.5,269 C196.225,267.9,194.875,266.55,193.5,266 C192.125,265.45,190.325,265,189.5,265 M375,265 C374.45,265,374.225,266.8,374.5,269 C374.797,271.375,376.016,273.203,377.5,273.5 C378.875,273.775,380.225,273.1,380.5,272 C380.775,270.9,379.875,268.875,378.5,267.5 C377.125,266.125,375.55,265,375,265 M435.5,265.5 C434.125,265.225,432.1,265.9,431,267 L429,269 L435,268.5 C438.3,268.225,442.575,268.675,444.5,269.5 C446.425,270.325,449.8,271.675,452,272.5 C454.2,273.325,455.775,273.55,455.5,273 C455.225,272.45,452.975,271.1,450.5,270 C448.025,268.9,444.2,267.55,442,267 C439.8,266.45,436.875,265.775,435.5,265.5 M391,269.5 C389.411,268.308,389.103,268.616,389.5,271 C389.775,272.65,391.125,274.225,392.5,274.5 C393.875,274.775,394.775,274.55,394.5,274 C394.225,273.45,394.225,272.775,394.5,272.5 C394.775,272.225,394.55,271.775,394,271.5 C393.45,271.225,392.1,270.325,391,269.5 M406.5,268.5 C405.675,268.225,404.1,268.675,403,269.5 C401.631,270.527,402.104,270.685,404.5,270 C406.425,269.45,407.325,268.775,406.5,268.5 M305.5,271 L303,269 L303.5,272.5 C303.775,274.425,304.675,275.775,305.5,275.5 C306.325,275.225,307.225,274.55,307.5,274 C307.775,273.45,306.875,272.1,305.5,271 M347.5,269.5 C346.675,269.225,346.675,269.9,347.5,271 C348.325,272.1,350.35,272.55,352,272 C353.778,271.407,354.389,270.593,353.5,270 C352.675,269.45,351.325,269.225,350.5,269.5 C349.675,269.775,348.325,269.775,347.5,269.5 M275,272 C274.45,272,274.225,272.9,274.5,274 C274.775,275.1,276.575,276.225,278.5,276.5 C280.425,276.775,282.225,276.325,282.5,275.5 C282.775,274.675,281.425,273.55,279.5,273 C277.575,272.45,275.55,272,275,272 M432.5,273.5 L430,272 L432,275.5 C433.1,277.425,435.8,280.125,438,281.5 L442,284 L438.5,279.5 C436.575,277.025,433.875,274.325,432.5,273.5 M139.5,273 C138.675,273,135.75,274.125,133,275.5 L128,278 L133,278.5 C136.719,278.872,138.384,278.231,139.5,276 C140.325,274.35,140.325,273,139.5,273 M211,273 C210.45,273,209.775,274.125,209.5,275.5 C209.169,277.154,210.016,278.169,212,278.5 C213.65,278.775,215.9,278.1,217,277 L219,275 L215.5,274 C213.575,273.45,211.55,273,211,273 M245.5,274.5 C243.828,273.497,242.338,273.828,241,275.5 C239.9,276.875,239.225,278.9,239.5,280 C239.775,281.1,241.575,281.775,243.5,281.5 C245.425,281.225,247.225,279.875,247.5,278.5 C247.775,277.125,246.875,275.325,245.5,274.5 M159.5,274 C158.125,274,156.325,274.675,155.5,275.5 C154.675,276.325,155.8,276.325,158,275.5 C160.316,274.631,160.948,274,159.5,274 M264.5,274.5 C262.959,274.192,261.616,275.151,261,277 C260.337,278.99,260.842,280.337,262.5,281 C263.875,281.55,265.675,281.775,266.5,281.5 C267.325,281.225,267.775,279.65,267.5,278 C267.225,276.35,265.875,274.775,264.5,274.5 M173.5,277 C171.823,276.329,170.835,276.823,170.5,278.5 C170.203,279.984,171.016,281.203,172.5,281.5 C173.875,281.775,175.225,281.1,175.5,280 C175.775,278.9,174.875,277.55,173.5,277 M409.5,278 C408.675,276.9,407.55,276.675,407,277.5 C406.45,278.325,406.9,280.35,408,282 L410,285 L410.5,282.5 C410.775,281.125,410.325,279.1,409.5,278 M330.5,278.5 C329.125,277.675,327.775,277.45,327.5,278 C327.225,278.55,328.125,280.35,329.5,282 L332,285 L332.5,282.5 C332.775,281.125,331.875,279.325,330.5,278.5 M297.5,281.5 C295.697,281.139,296.254,282.672,299.5,287 C301.975,290.3,306.25,296.15,309,300 C311.75,303.85,314.675,309.025,315.5,311.5 C316.325,313.975,317.45,318.25,318,321 C318.55,323.75,319.225,328.25,319.5,331 C319.775,333.75,320.675,336.225,321.5,336.5 C322.325,336.775,322.775,336.325,322.5,335.5 C322.225,334.675,322.45,331.75,323,329 C323.55,326.25,323.325,320.625,322.5,316.5 C321.675,312.375,319.2,305.85,317,302 C314.8,298.15,310.075,292.075,306.5,288.5 C302.925,284.925,298.875,281.775,297.5,281.5 M290,285.5 C286.7,283.575,283.325,282.45,282.5,283 C281.618,283.588,282.236,284.824,284,286 C285.65,287.1,290.375,292.05,294.5,297 C298.625,301.95,303.35,309.15,305,313 C306.65,316.85,308.45,322.25,309,325 C309.55,327.75,310.45,331.8,311,334 C311.557,336.229,312.443,337.336,313,336.5 C313.55,335.675,314.225,332.3,314.5,329 C314.775,325.7,313.875,319.4,312.5,315 C311.104,310.534,306.908,303.024,303,298 C299.15,293.05,293.3,287.425,290,285.5 M219.5,284 C218.052,284,216.79,285.263,216.5,287 C216.119,289.285,216.834,290.119,219.5,290.5 C221.682,290.812,223.376,290.059,224,288.5 C224.55,287.125,224.325,285.55,223.5,285 C222.675,284.45,220.875,284,219.5,284 M121,285 C119.35,285,117.55,285.9,117,287 C116.412,288.176,117.03,289.412,118.5,290 C119.875,290.55,121.9,290.775,123,290.5 C124.1,290.225,125.45,289.325,126,288.5 C126.55,287.675,126.325,286.55,125.5,286 C124.675,285.45,122.65,285,121,285 M310.5,285 C310.225,285,312.475,289.05,315.5,294 C318.525,298.95,322.125,306.15,323.5,310 C324.875,313.85,326.45,320.6,327,325 C327.55,329.4,327.775,333.225,327.5,333.5 C327.225,333.775,327.9,333.325,329,332.5 C330.1,331.675,331.225,327.85,331.5,324 C331.775,320.15,330.875,313.625,329.5,309.5 C328.125,305.375,325.2,299.525,323,296.5 C320.8,293.475,317.2,289.65,315,288 C312.8,286.35,310.775,285,310.5,285 M159.5,289.5 C157.575,289.225,155.55,289.9,155,291 C154.448,292.104,155.119,293.672,156.5,294.5 C157.875,295.325,160.125,295.775,161.5,295.5 C162.984,295.203,163.797,293.984,163.5,292.5 C163.225,291.125,161.425,289.775,159.5,289.5 M173.5,290 C172.675,290,171.775,291.125,171.5,292.5 C171.169,294.154,172.016,295.169,174,295.5 C175.65,295.775,177.45,295.325,178,294.5 C178.55,293.675,178.1,292.325,177,291.5 C175.9,290.675,174.325,290,173.5,290 M96,291 C95.45,291,93.2,292.35,91,294 C88.8,295.65,87.225,297.45,87.5,298 C87.775,298.55,89.575,298.775,91.5,298.5 C93.775,298.175,95.35,296.775,96,294.5 C96.55,292.575,96.55,291,96,291 M277,291 C276.45,291,275.325,291.9,274.5,293 C273.675,294.1,273.225,295.9,273.5,297 C273.775,298.1,275.125,299.45,276.5,300 C277.875,300.55,279.675,300.55,280.5,300 C281.325,299.45,282.225,298.1,282.5,297 C282.775,295.9,281.875,294.1,280.5,293 C279.125,291.9,277.55,291,277,291 M254.5,292 C253.675,292,252.775,292.9,252.5,294 C252.225,295.1,252.675,296.45,253.5,297 C254.325,297.55,255.45,297.775,256,297.5 C256.55,297.225,256.775,295.875,256.5,294.5 C256.225,293.125,255.325,292,254.5,292 M142.5,300.5 C141.675,300.225,139.875,300.675,138.5,301.5 C137.125,302.325,136.45,303.675,137,304.5 C137.55,305.325,139.125,305.775,140.5,305.5 C141.875,305.225,143.225,304.1,143.5,303 C143.775,301.9,143.325,300.775,142.5,300.5 M103,301.5 C101.9,301.225,100.1,301.675,99,302.5 C97.9,303.325,96.775,304.45,96.5,305 C96.225,305.55,97.125,305.775,98.5,305.5 C99.875,305.225,101.225,305.225,101.5,305.5 C101.775,305.775,102.675,305.55,103.5,305 C104.325,304.45,105.45,303.325,106,302.5 C106.55,301.675,106.55,301.225,106,301.5 C105.45,301.775,104.1,301.775,103,301.5 M68.5,303 C68.225,303,65.525,304.35,62.5,306 C59.475,307.65,56.55,309.45,56,310 C55.45,310.55,56.8,310.55,59,310 C61.2,309.45,63.9,308.325,65,307.5 C66.1,306.675,67.45,305.325,68,304.5 C68.55,303.675,68.775,303,68.5,303 M116.5,306.5 C115.125,306.225,113.325,306.675,112.5,307.5 C111.526,308.474,111.876,309.35,113.5,310 C114.875,310.55,116.9,310.775,118,310.5 C119.1,310.225,119.775,309.325,119.5,308.5 C119.225,307.675,117.875,306.775,116.5,306.5 M164,307 C161.8,307,159.55,307.9,159,309 C158.27,310.459,159.217,311.135,162.5,311.5 C165.69,311.854,167.146,311.272,167.5,309.5 C167.88,307.6,167.039,307,164,307 M457,307 C456.45,307,454.425,307.675,452.5,308.5 C450.575,309.325,441.575,312.7,432.5,316 C423.425,319.3,412.175,323.125,407.5,324.5 C402.825,325.875,398.325,327.45,397.5,328 C396.675,328.55,397.8,329.225,400,329.5 C402.2,329.775,409.175,328.425,415.5,326.5 C421.825,324.575,430.6,321.425,435,319.5 C439.4,317.575,445.025,315.1,447.5,314 C449.975,312.9,453.35,310.875,455,309.5 C456.65,308.125,457.55,307,457,307 M202,310 C200.35,308.9,198.1,308.45,197,309 C195.9,309.55,195.225,311.125,195.5,312.5 C195.775,313.875,197.35,315.225,199,315.5 C200.65,315.775,202.675,315.1,203.5,314 C204.551,312.599,204.101,311.401,202,310 M87,310 C85.9,310,84.325,310.45,83.5,311 C82.675,311.55,81.55,312.675,81,313.5 C80.408,314.388,81.836,315.204,84.5,315.5 C86.975,315.775,89.45,315.325,90,314.5 C90.55,313.675,90.55,312.325,90,311.5 C89.45,310.675,88.1,310,87,310 M125.5,319.5 C123.575,319.225,121.55,319.9,121,321 C120.448,322.104,121.119,323.672,122.5,324.5 C123.875,325.325,125.675,325.55,126.5,325 C127.325,324.45,128.225,323.1,128.5,322 C128.808,320.77,127.653,319.808,125.5,319.5 M182,320 C179.8,320,177.325,320.675,176.5,321.5 C175.452,322.548,175.905,323.151,178,323.5 C179.65,323.775,182.125,323.1,183.5,322 L186,320 L182,320 M95.5,327.5 C95.225,327.225,95.45,327.675,96,328.5 C96.55,329.325,97.9,329.775,99,329.5 C100.133,329.217,100.35,328.567,99.5,328 C98.675,327.45,97.55,327.225,97,327.5 C96.45,327.775,95.775,327.775,95.5,327.5 M322,342 C320.558,341.279,319.86,342.117,319.5,345 C319.225,347.2,319.45,349.225,320,349.5 C320.55,349.775,321.45,348.65,322,347 C322.55,345.35,323.225,343.775,323.5,343.5 C323.775,343.225,323.1,342.55,322,342 M269,344.5 C265.15,344.225,258.85,344.9,255,346 C251.15,347.1,245.75,349.125,243,350.5 C240.25,351.875,234.4,353.675,230,354.5 L222,356 L229,356.5 C232.982,356.784,240.096,355.491,245.5,353.5 C250.725,351.575,257.7,349.55,261,349 C264.3,348.45,269.7,348.225,273,348.5 C276.3,348.775,282.825,350.35,287.5,352 C292.175,353.65,299.6,355.45,304,356 C308.4,356.55,312.9,356.55,314,356 C315.455,355.273,315.045,354.727,312.5,354 C310.575,353.45,305.625,352.55,301.5,352 C297.375,351.45,292.425,350.325,290.5,349.5 C288.575,348.675,284.525,347.325,281.5,346.5 C278.475,345.675,272.85,344.775,269,344.5 " fill="rgb(0, 0, 0)" stroke="none" fill-rule="evenodd"></path></svg>